<?xml version="1.0" encoding="UTF-8" standalone="no"?>
<!-- Created with Inkscape (http://www.inkscape.org/) -->

<svg
   width="210mm"
   height="297mm"
   viewBox="0 0 210 297"
   version="1.1"
   id="svg5"
   inkscape:export-filename="logo.png"
   inkscape:export-xdpi="96"
   inkscape:export-ydpi="96"
   inkscape:version="1.2.2 (b0a8486541, 2022-12-01)"
   sodipodi:docname="logo.svg"
   xmlns:inkscape="http://www.inkscape.org/namespaces/inkscape"
   xmlns:sodipodi="http://sodipodi.sourceforge.net/DTD/sodipodi-0.dtd"
   xmlns="http://www.w3.org/2000/svg"
   xmlns:svg="http://www.w3.org/2000/svg">
  <sodipodi:namedview
     id="namedview7"
     pagecolor="#ffffff"
     bordercolor="#000000"
     borderopacity="0.25"
     inkscape:showpageshadow="2"
     inkscape:pageopacity="0.0"
     inkscape:pagecheckerboard="0"
     inkscape:deskcolor="#d1d1d1"
     inkscape:document-units="mm"
     showgrid="false"
     inkscape:zoom="2.3508173"
     inkscape:cx="392.8421"
     inkscape:cy="538.9615"
     inkscape:window-width="1920"
     inkscape:window-height="1011"
     inkscape:window-x="0"
     inkscape:window-y="0"
     inkscape:window-maximized="1"
     inkscape:current-layer="layer1" />
  <defs
     id="defs2" />
  <g
     inkscape:label="Layer 1"
     inkscape:groupmode="layer"
     id="layer1">
    <path
       style="font-weight:bold;font-size:43.7153px;font-family:'League Spartan';-inkscape-font-specification:'League Spartan, Bold';text-align:center;text-anchor:middle;fill:#299353;fill-opacity:1;stroke-width:2.64583;stroke-linecap:round;stroke-linejoin:round;paint-order:stroke fill markers"
       d="m 71.370378,143.59066 -2.229535,6.02851 4.931219,1.45567 3.952246,-1.333 -4.021138,0.28512 -0.145484,-6.44928 z"
       id="path9377"
       sodipodi:nodetypes="ccccccc" />
    <g
       aria-label="Goggle"
       id="text1103"
       style="font-weight:bold;font-size:43.7153px;font-family:'League Spartan';-inkscape-font-specification:'League Spartan, Bold';text-align:center;text-anchor:middle;fill:#7d8ef4;stroke-width:1.63932;stroke-linecap:round;stroke-linejoin:round;paint-order:stroke fill markers">
      <path
         d="m 57.070516,135.198 v 7.82504 q -1.398889,6.42615 -6.120142,9.74851 -4.721253,3.27865 -10.535388,3.27865 -7.300455,0 -12.458861,-5.46441 -5.11469,-5.46442 -5.11469,-13.20202 0,-7.86876 5.02726,-13.28946 5.02726,-5.42069 12.546291,-5.42069 8.786776,0 13.901466,6.16385 l -5.376982,5.90157 q -2.88521,-4.63382 -8.043615,-4.63382 -3.803232,0 -6.51358,3.32236 -2.666634,3.27865 -2.666634,7.95619 0,4.5901 2.666634,7.86875 2.710348,3.23493 6.51358,3.23493 3.147501,0 5.464412,-1.87976 2.360627,-1.92347 2.360627,-5.07097 H 40.414986 V 135.198 Z"
         id="path2765"
         style="fill:#2a7fff;fill-opacity:1" />
      <path
         d="m 62.797241,152.72784 q -3.7158,-3.32237 -3.7158,-8.52449 0,-5.20212 3.890661,-8.52448 3.890662,-3.36608 9.617367,-3.36608 5.639274,0 9.48622,3.36608 3.890662,3.36608 3.890662,8.52448 0,5.15841 -3.803231,8.52449 -3.759516,3.32236 -9.573651,3.32236 -6.032712,0 -9.792228,-3.32236 z m 5.988997,-12.32772 q -1.486321,1.48632 -1.486321,3.80323 0,2.31691 1.442605,3.80323 1.442605,1.44261 3.803232,1.44261 2.273195,0 3.7158,-1.48632 1.48632,-1.48632 1.48632,-3.75952 0,-2.31691 -1.530035,-3.80323 -1.48632,-1.48632 -3.672085,-1.48632 -2.229481,0 -3.759516,1.48632 z"
         id="path2767"
         style="fill:#e43c3c;fill-opacity:1" />
      <path
         d="m 88.589237,160.9026 6.338719,-3.10379 q 1.748612,2.88521 6.076424,2.88521 2.01091,0 3.7158,-1.31146 1.74862,-1.26774 1.74862,-3.93437 V 153.777 q -2.05462,2.2732 -7.344175,2.2732 -4.852398,0 -7.9999,-3.40979 -3.147502,-3.45351 -3.147502,-8.43706 0,-4.98354 3.147502,-8.43705 3.147502,-3.45351 7.9999,-3.45351 4.327815,0 7.213025,2.66663 h 0.13115 v -2.0109 h 7.7376 v 23.03796 q 0,5.46442 -3.62837,8.43706 -3.62837,2.97264 -9.57365,2.97264 -9.617363,0 -12.415143,-6.51358 z m 9.092783,-20.50248 q -1.48632,1.48632 -1.48632,3.80323 0,2.31691 1.442605,3.80323 1.442605,1.44261 3.803235,1.44261 2.27319,0 3.7158,-1.48632 1.48632,-1.48632 1.48632,-3.75952 0,-2.31691 -1.53004,-3.80323 -1.48632,-1.48632 -3.67208,-1.48632 -2.229484,0 -3.75952,1.48632 z"
         id="path2769"
         style="fill:#e7c02c;fill-opacity:1" />
      <path
         d="m 118.44681,160.9026 6.33872,-3.10379 q 1.74861,2.88521 6.07643,2.88521 2.0109,0 3.7158,-1.31146 1.74861,-1.26774 1.74861,-3.93437 V 153.777 q -2.05462,2.2732 -7.34417,2.2732 -4.8524,0 -7.9999,-3.40979 -3.1475,-3.45351 -3.1475,-8.43706 0,-4.98354 3.1475,-8.43705 3.1475,-3.45351 7.9999,-3.45351 4.32781,0 7.21302,2.66663 h 0.13115 v -2.0109 h 7.73761 v 23.03796 q 0,5.46442 -3.62837,8.43706 -3.62837,2.97264 -9.57365,2.97264 -9.61737,0 -12.41515,-6.51358 z m 9.09278,-20.50248 q -1.48632,1.48632 -1.48632,3.80323 0,2.31691 1.44261,3.80323 1.4426,1.44261 3.80323,1.44261 2.2732,0 3.7158,-1.48632 1.48632,-1.48632 1.48632,-3.75952 0,-2.31691 -1.53003,-3.80323 -1.48632,-1.48632 -3.67209,-1.48632 -2.22948,0 -3.75952,1.48632 z"
         id="path2771"
         style="fill:#2a7fff;fill-opacity:1" />
      <path
         d="m 149.30985,155.39447 v -37.59516 h 7.7376 v 37.59516 z"
         id="path2773"
         style="fill:#37c871" />
      <path
         d="m 184.98157,145.25252 h -16.26209 q 0,2.36063 1.53003,3.49722 1.53004,1.1366 3.32237,1.1366 1.87975,0 2.97264,-0.48087 1.09288,-0.52458 2.49177,-2.0109 l 5.59556,2.79778 q -3.49723,5.85785 -11.62827,5.85785 -5.07098,0 -8.69935,-3.45351 -3.62837,-3.49722 -3.62837,-8.39334 0,-4.89611 3.62837,-8.39333 3.62837,-3.49723 8.69935,-3.49723 5.33326,0 8.65563,3.10379 3.36607,3.06007 3.36607,8.78677 0,0.78688 -0.0437,1.04917 z m -16.04352,-4.2841 h 8.52449 q -0.26229,-1.74861 -1.39889,-2.66663 -1.09288,-0.96174 -2.8415,-0.96174 -1.92347,0 -3.06007,1.00545 -1.1366,1.00545 -1.22403,2.62292 z"
         id="path2775"
         style="fill:#e43c3c;fill-opacity:1" />
    </g>
    <circle
       style="fill:#5a2ca0;fill-opacity:1;stroke-width:2.44548;stroke-linecap:round;stroke-linejoin:round;paint-order:stroke fill markers"
       id="circle10414"
       cx="72.556404"
       cy="142.60046"
       r="2.599781" />
    <circle
       style="fill:#000000;fill-opacity:1;stroke-width:2.64583;stroke-linecap:round;stroke-linejoin:round;paint-order:stroke fill markers"
       id="path10242"
       cx="71.590599"
       cy="141.7616"
       r="0.41159955" />
    <circle
       style="fill:#000000;fill-opacity:1;stroke-width:2.64583;stroke-linecap:round;stroke-linejoin:round;paint-order:stroke fill markers"
       id="circle10348"
       cx="73.71183"
       cy="141.71199"
       r="0.41159955" />
    <path
       style="fill:none;fill-opacity:1;stroke:#000000;stroke-width:0.4;stroke-linecap:round;stroke-linejoin:round;stroke-dasharray:none;stroke-opacity:1;paint-order:stroke fill markers"
       d="m 73.913412,146.98647 c 1.648717,0.0821 4.04154,-2.27098 4.053965,-3.20035"
       id="path10410" />
    <path
       style="fill:none;fill-opacity:1;stroke:#000000;stroke-width:0.4;stroke-linecap:round;stroke-linejoin:round;stroke-dasharray:none;stroke-opacity:1;paint-order:stroke fill markers"
       d="m 70.9636,146.45959 c -1.386781,-0.89546 -4.635567,-0.054 -5.111012,0.7446"
       id="path10412" />
    <circle
       style="fill:#5a2ca0;fill-opacity:1;stroke-width:0.468983;stroke-linecap:round;stroke-linejoin:round;paint-order:stroke fill markers"
       id="circle10416"
       cx="78.019302"
       cy="143.71416"
       r="0.49857414" />
    <circle
       style="fill:#5a2ca0;fill-opacity:1;stroke-width:0.468983;stroke-linecap:round;stroke-linejoin:round;paint-order:stroke fill markers"
       id="path10188"
       cx="65.781563"
       cy="147.41615"
       r="0.49857414" />
  </g>
</svg>
